<svg width="117" height="40" viewBox="0 0 117 40" fill="none" xmlns="http://www.w3.org/2000/svg">
<rect y="0.588135" width="117" height="38.8235" fill="white"/>
<path d="M25.562 27.5979C25.21 27.5979 24.914 27.4779 24.674 27.2379C24.434 26.9979 24.314 26.7019 24.314 26.3499V10.1019C24.314 9.7339 24.434 9.4379 24.674 9.2139C24.914 8.9739 25.21 8.8539 25.562 8.8539H29.906C31.282 8.8539 32.53 9.0859 33.65 9.5499C34.786 9.9979 35.77 10.6459 36.602 11.4939C37.434 12.3259 38.074 13.3099 38.522 14.4459C38.97 15.5819 39.194 16.8379 39.194 18.2139C39.194 19.5899 38.97 20.8539 38.522 22.0059C38.074 23.1419 37.434 24.1339 36.602 24.9819C35.77 25.8139 34.786 26.4619 33.65 26.9259C32.53 27.3739 31.282 27.5979 29.906 27.5979H25.562ZM26.81 25.3899H29.906C31.25 25.3899 32.434 25.0859 33.458 24.4779C34.498 23.8539 35.314 23.0059 35.906 21.9339C36.498 20.8459 36.794 19.6059 36.794 18.2139C36.794 16.8059 36.498 15.5659 35.906 14.4939C35.314 13.4219 34.498 12.5819 33.458 11.9739C32.434 11.3659 31.25 11.0619 29.906 11.0619H26.81V25.3899ZM48.8228 27.6939C47.5268 27.6939 46.3828 27.4139 45.3908 26.8539C44.3988 26.2779 43.6148 25.4939 43.0388 24.5019C42.4788 23.4939 42.1988 22.3419 42.1988 21.0459C42.1988 19.7339 42.4788 18.5819 43.0388 17.5899C43.6148 16.5819 44.3988 15.7979 45.3908 15.2379C46.3828 14.6619 47.5268 14.3739 48.8228 14.3739C50.1028 14.3739 51.2388 14.6619 52.2308 15.2379C53.2228 15.7979 53.9988 16.5819 54.5588 17.5899C55.1348 18.5819 55.4228 19.7339 55.4228 21.0459C55.4228 22.3419 55.1428 23.4939 54.5828 24.5019C54.0228 25.4939 53.2468 26.2779 52.2548 26.8539C51.2628 27.4139 50.1188 27.6939 48.8228 27.6939ZM48.8228 25.5339C49.6548 25.5339 50.3908 25.3419 51.0308 24.9579C51.6708 24.5739 52.1668 24.0459 52.5188 23.3739C52.8868 22.7019 53.0708 21.9259 53.0708 21.0459C53.0708 20.1659 52.8868 19.3899 52.5188 18.7179C52.1668 18.0299 51.6708 17.4939 51.0308 17.1099C50.3908 16.7259 49.6548 16.5339 48.8228 16.5339C47.9908 16.5339 47.2548 16.7259 46.6148 17.1099C45.9748 17.4939 45.4708 18.0299 45.1028 18.7179C44.7348 19.3899 44.5508 20.1659 44.5508 21.0459C44.5508 21.9259 44.7348 22.7019 45.1028 23.3739C45.4708 24.0459 45.9748 24.5739 46.6148 24.9579C47.2548 25.3419 47.9908 25.5339 48.8228 25.5339ZM58.5622 27.5979C58.1142 27.5979 57.7702 27.4059 57.5302 27.0219C57.2902 26.6379 57.2662 26.2299 57.4582 25.7979L64.2022 9.6939C64.4422 9.1339 64.8342 8.8539 65.3782 8.8539C65.9542 8.8539 66.3462 9.1339 66.5542 9.6939L73.3222 25.8459C73.4982 26.2939 73.4662 26.7019 73.2262 27.0699C73.0022 27.4219 72.6582 27.5979 72.1942 27.5979C71.9542 27.5979 71.7222 27.5339 71.4982 27.4059C71.2902 27.2619 71.1382 27.0699 71.0422 26.8299L65.0902 12.0459H65.7622L59.7142 26.8299C59.6022 27.0859 59.4342 27.2779 59.2102 27.4059C59.0022 27.5339 58.7862 27.5979 58.5622 27.5979ZM59.8342 23.4699L60.7942 21.4059H70.2022L71.1622 23.4699H59.8342ZM77.1172 19.3899C77.1172 18.4299 77.3492 17.5739 77.8132 16.8219C78.2932 16.0539 78.9332 15.4459 79.7332 14.9979C80.5332 14.5499 81.4132 14.3259 82.3732 14.3259C83.3332 14.3259 84.0452 14.4859 84.5092 14.8059C84.9892 15.1099 85.1732 15.4779 85.0612 15.9099C85.0132 16.1339 84.9172 16.3099 84.7732 16.4379C84.6452 16.5499 84.4932 16.6219 84.3172 16.6539C84.1412 16.6859 83.9492 16.6779 83.7412 16.6299C82.7172 16.4219 81.7972 16.4059 80.9812 16.5819C80.1652 16.7579 79.5172 17.0859 79.0372 17.5659C78.5732 18.0459 78.3412 18.6539 78.3412 19.3899H77.1172ZM77.1412 27.5979C76.7572 27.5979 76.4612 27.5019 76.2532 27.3099C76.0452 27.1019 75.9412 26.7979 75.9412 26.3979V15.6699C75.9412 15.2859 76.0452 14.9899 76.2532 14.7819C76.4612 14.5739 76.7572 14.4699 77.1412 14.4699C77.5412 14.4699 77.8372 14.5739 78.0292 14.7819C78.2372 14.9739 78.3412 15.2699 78.3412 15.6699V26.3979C78.3412 26.7819 78.2372 27.0779 78.0292 27.2859C77.8372 27.4939 77.5412 27.5979 77.1412 27.5979ZM92.389 27.5979C91.589 27.5979 90.869 27.3979 90.229 26.9979C89.589 26.5819 89.085 26.0219 88.717 25.3179C88.349 24.6139 88.165 23.8219 88.165 22.9419V11.4939C88.165 11.1419 88.277 10.8539 88.501 10.6299C88.725 10.4059 89.013 10.2939 89.365 10.2939C89.717 10.2939 90.005 10.4059 90.229 10.6299C90.453 10.8539 90.565 11.1419 90.565 11.4939V22.9419C90.565 23.5819 90.741 24.1179 91.093 24.5499C91.445 24.9819 91.877 25.1979 92.389 25.1979H93.205C93.493 25.1979 93.733 25.3099 93.925 25.5339C94.133 25.7579 94.237 26.0459 94.237 26.3979C94.237 26.7499 94.101 27.0379 93.829 27.2619C93.573 27.4859 93.237 27.5979 92.821 27.5979H92.389ZM87.061 17.0139C86.725 17.0139 86.453 16.9179 86.245 16.7259C86.037 16.5339 85.933 16.2939 85.933 16.0059C85.933 15.6859 86.037 15.4299 86.245 15.2379C86.453 15.0459 86.725 14.9499 87.061 14.9499H92.605C92.941 14.9499 93.213 15.0459 93.421 15.2379C93.629 15.4299 93.733 15.6859 93.733 16.0059C93.733 16.2939 93.629 16.5339 93.421 16.7259C93.213 16.9179 92.941 17.0139 92.605 17.0139H87.061Z" fill="black"/>
</svg>
