<svg width="126" height="52" viewBox="0 0 126 52" fill="none" xmlns="http://www.w3.org/2000/svg">
<g filter="url(#filter0_d_617_792)">
<rect x="4.5" width="117" height="44" fill="white"/>
<path d="M30.062 29.9445C29.71 29.9445 29.414 29.8245 29.174 29.5845C28.934 29.3445 28.814 29.0485 28.814 28.6965V12.4485C28.814 12.0805 28.934 11.7845 29.174 11.5605C29.414 11.3205 29.71 11.2005 30.062 11.2005H34.406C35.782 11.2005 37.03 11.4325 38.15 11.8965C39.286 12.3445 40.27 12.9925 41.102 13.8405C41.934 14.6725 42.574 15.6565 43.022 16.7925C43.47 17.9285 43.694 19.1845 43.694 20.5605C43.694 21.9365 43.47 23.2005 43.022 24.3525C42.574 25.4885 41.934 26.4805 41.102 27.3285C40.27 28.1605 39.286 28.8085 38.15 29.2725C37.03 29.7205 35.782 29.9445 34.406 29.9445H30.062ZM31.31 27.7365H34.406C35.75 27.7365 36.934 27.4325 37.958 26.8245C38.998 26.2005 39.814 25.3525 40.406 24.2805C40.998 23.1925 41.294 21.9525 41.294 20.5605C41.294 19.1525 40.998 17.9125 40.406 16.8405C39.814 15.7685 38.998 14.9285 37.958 14.3205C36.934 13.7125 35.75 13.4085 34.406 13.4085H31.31V27.7365ZM53.3228 30.0405C52.0268 30.0405 50.8828 29.7605 49.8908 29.2005C48.8988 28.6245 48.1148 27.8405 47.5388 26.8485C46.9788 25.8405 46.6988 24.6885 46.6988 23.3925C46.6988 22.0805 46.9788 20.9285 47.5388 19.9365C48.1148 18.9285 48.8988 18.1445 49.8908 17.5845C50.8828 17.0085 52.0268 16.7205 53.3228 16.7205C54.6028 16.7205 55.7388 17.0085 56.7308 17.5845C57.7228 18.1445 58.4988 18.9285 59.0588 19.9365C59.6348 20.9285 59.9228 22.0805 59.9228 23.3925C59.9228 24.6885 59.6428 25.8405 59.0828 26.8485C58.5228 27.8405 57.7468 28.6245 56.7548 29.2005C55.7628 29.7605 54.6188 30.0405 53.3228 30.0405ZM53.3228 27.8805C54.1548 27.8805 54.8908 27.6885 55.5308 27.3045C56.1708 26.9205 56.6668 26.3925 57.0188 25.7205C57.3868 25.0485 57.5708 24.2725 57.5708 23.3925C57.5708 22.5125 57.3868 21.7365 57.0188 21.0645C56.6668 20.3765 56.1708 19.8405 55.5308 19.4565C54.8908 19.0725 54.1548 18.8805 53.3228 18.8805C52.4908 18.8805 51.7548 19.0725 51.1148 19.4565C50.4748 19.8405 49.9708 20.3765 49.6028 21.0645C49.2348 21.7365 49.0508 22.5125 49.0508 23.3925C49.0508 24.2725 49.2348 25.0485 49.6028 25.7205C49.9708 26.3925 50.4748 26.9205 51.1148 27.3045C51.7548 27.6885 52.4908 27.8805 53.3228 27.8805ZM63.0622 29.9445C62.6142 29.9445 62.2702 29.7525 62.0302 29.3685C61.7902 28.9845 61.7662 28.5765 61.9582 28.1445L68.7022 12.0405C68.9422 11.4805 69.3342 11.2005 69.8782 11.2005C70.4542 11.2005 70.8462 11.4805 71.0542 12.0405L77.8222 28.1925C77.9982 28.6405 77.9662 29.0485 77.7262 29.4165C77.5022 29.7685 77.1582 29.9445 76.6942 29.9445C76.4542 29.9445 76.2222 29.8805 75.9982 29.7525C75.7902 29.6085 75.6382 29.4165 75.5422 29.1765L69.5902 14.3925H70.2622L64.2142 29.1765C64.1022 29.4325 63.9342 29.6245 63.7102 29.7525C63.5022 29.8805 63.2862 29.9445 63.0622 29.9445ZM64.3342 25.8165L65.2942 23.7525H74.7022L75.6622 25.8165H64.3342ZM81.6172 21.7365C81.6172 20.7765 81.8492 19.9205 82.3132 19.1685C82.7932 18.4005 83.4332 17.7925 84.2332 17.3445C85.0332 16.8965 85.9132 16.6725 86.8732 16.6725C87.8332 16.6725 88.5452 16.8325 89.0092 17.1525C89.4892 17.4565 89.6732 17.8245 89.5612 18.2565C89.5132 18.4805 89.4172 18.6565 89.2732 18.7845C89.1452 18.8965 88.9932 18.9685 88.8172 19.0005C88.6412 19.0325 88.4492 19.0245 88.2412 18.9765C87.2172 18.7685 86.2972 18.7525 85.4812 18.9285C84.6652 19.1045 84.0172 19.4325 83.5372 19.9125C83.0732 20.3925 82.8412 21.0005 82.8412 21.7365H81.6172ZM81.6412 29.9445C81.2572 29.9445 80.9612 29.8485 80.7532 29.6565C80.5452 29.4485 80.4412 29.1445 80.4412 28.7445V18.0165C80.4412 17.6325 80.5452 17.3365 80.7532 17.1285C80.9612 16.9205 81.2572 16.8165 81.6412 16.8165C82.0412 16.8165 82.3372 16.9205 82.5292 17.1285C82.7372 17.3205 82.8412 17.6165 82.8412 18.0165V28.7445C82.8412 29.1285 82.7372 29.4245 82.5292 29.6325C82.3372 29.8405 82.0412 29.9445 81.6412 29.9445ZM96.889 29.9445C96.089 29.9445 95.369 29.7445 94.729 29.3445C94.089 28.9285 93.585 28.3685 93.217 27.6645C92.849 26.9605 92.665 26.1685 92.665 25.2885V13.8405C92.665 13.4885 92.777 13.2005 93.001 12.9765C93.225 12.7525 93.513 12.6405 93.865 12.6405C94.217 12.6405 94.505 12.7525 94.729 12.9765C94.953 13.2005 95.065 13.4885 95.065 13.8405V25.2885C95.065 25.9285 95.241 26.4645 95.593 26.8965C95.945 27.3285 96.377 27.5445 96.889 27.5445H97.705C97.993 27.5445 98.233 27.6565 98.425 27.8805C98.633 28.1045 98.737 28.3925 98.737 28.7445C98.737 29.0965 98.601 29.3845 98.329 29.6085C98.073 29.8325 97.737 29.9445 97.321 29.9445H96.889ZM91.561 19.3605C91.225 19.3605 90.953 19.2645 90.745 19.0725C90.537 18.8805 90.433 18.6405 90.433 18.3525C90.433 18.0325 90.537 17.7765 90.745 17.5845C90.953 17.3925 91.225 17.2965 91.561 17.2965H97.105C97.441 17.2965 97.713 17.3925 97.921 17.5845C98.129 17.7765 98.233 18.0325 98.233 18.3525C98.233 18.6405 98.129 18.8805 97.921 19.0725C97.713 19.2645 97.441 19.3605 97.105 19.3605H91.561Z" fill="black"/>
</g>
<defs>
<filter id="filter0_d_617_792" x="0.5" y="0" width="125" height="52" filterUnits="userSpaceOnUse" color-interpolation-filters="sRGB">
<feFlood flood-opacity="0" result="BackgroundImageFix"/>
<feColorMatrix in="SourceAlpha" type="matrix" values="0 0 0 0 0 0 0 0 0 0 0 0 0 0 0 0 0 0 127 0" result="hardAlpha"/>
<feOffset dy="4"/>
<feGaussianBlur stdDeviation="2"/>
<feComposite in2="hardAlpha" operator="out"/>
<feColorMatrix type="matrix" values="0 0 0 0 0 0 0 0 0 0 0 0 0 0 0 0 0 0 0.25 0"/>
<feBlend mode="normal" in2="BackgroundImageFix" result="effect1_dropShadow_617_792"/>
<feBlend mode="normal" in="SourceGraphic" in2="effect1_dropShadow_617_792" result="shape"/>
</filter>
</defs>
</svg>
