<svg width="18" height="19" viewBox="0 0 18 19" fill="none" xmlns="http://www.w3.org/2000/svg">
<path d="M17.6464 2.66641C17.8417 2.47115 17.8417 2.15457 17.6464 1.9593L16.5407 0.853553C16.3454 0.658291 16.0289 0.658291 15.8336 0.853553L9.35355 7.33359C9.15829 7.52885 8.84171 7.52885 8.64645 7.33359L2.16641 0.853553C1.97115 0.658291 1.65457 0.658291 1.4593 0.853553L0.353553 1.9593C0.158291 2.15457 0.158291 2.47115 0.353553 2.66641L6.83359 9.14645C7.02885 9.34171 7.02885 9.65829 6.83359 9.85355L0.353553 16.3336C0.158291 16.5289 0.158291 16.8454 0.353553 17.0407L1.4593 18.1464C1.65457 18.3417 1.97115 18.3417 2.16641 18.1464L8.64645 11.6664C8.84171 11.4711 9.15829 11.4711 9.35355 11.6664L15.8336 18.1464C16.0289 18.3417 16.3454 18.3417 16.5407 18.1464L17.6464 17.0407C17.8417 16.8454 17.8417 16.5289 17.6464 16.3336L11.1664 9.85355C10.9711 9.65829 10.9711 9.34171 11.1664 9.14645L17.6464 2.66641Z" fill="black"/>
</svg>
